<svg width="77" height="78" viewBox="0 0 77 78" fill="none" xmlns="http://www.w3.org/2000/svg">
<g id="SolarHandMoneyBold 2">
<path id="Vector" fill-rule="evenodd" clip-rule="evenodd" d="M45.9594 13.0183H31.0406C30.5675 15.3297 29.426 17.4513 27.7576 19.1196C26.0893 20.788 23.9677 21.9295 21.6563 22.4026C21.6553 23.0978 21.6553 23.7929 21.6563 24.4881C23.9677 24.9612 26.0893 26.1027 27.7576 27.7711C29.426 29.4394 30.5675 31.561 31.0406 33.8724H45.9594C46.4325 31.561 47.5741 29.4394 49.2424 27.7711C50.9107 26.1027 53.0323 24.9612 55.3438 24.4881C55.3444 23.7929 55.3444 23.0978 55.3438 22.4026C53.0323 21.9295 50.9107 20.788 49.2424 19.1196C47.5741 17.4513 46.4325 15.3297 45.9594 13.0183ZM47.9004 8.2154C47.0181 8.20577 46.0813 8.20577 45.0835 8.20577H31.9165C30.9219 8.20577 29.9819 8.20577 29.1028 8.2154C28.9276 8.19962 28.7512 8.20284 28.5766 8.22502C27.1265 8.25069 25.8399 8.31165 24.7234 8.46244C22.7086 8.73194 20.8895 9.32869 19.4297 10.7885C17.9667 12.2515 17.3699 14.0706 17.1004 16.0822C16.9496 17.2019 16.8887 18.4885 16.863 19.9386C16.841 20.1121 16.8378 20.2874 16.8534 20.4616C16.8438 21.3439 16.8438 22.2839 16.8438 23.2785V23.6122C16.8438 24.6068 16.8438 25.5468 16.8534 26.4291C16.8378 26.6033 16.8411 26.7786 16.863 26.9521C16.8887 28.4054 16.9496 29.6888 17.1004 30.8053C17.3699 32.8201 17.9667 34.6392 19.4297 36.099C20.8895 37.562 22.7086 38.1588 24.7234 38.4283C25.8399 38.5791 27.1265 38.64 28.5766 38.6657C28.7511 38.6882 28.9276 38.6914 29.1028 38.6753C29.9819 38.6849 30.9219 38.6849 31.9165 38.6849H45.0835C46.0781 38.6849 47.0181 38.6849 47.9004 38.6753C48.0746 38.6912 48.2499 38.688 48.4234 38.6657C49.8768 38.64 51.1633 38.5791 52.2766 38.4283C54.2914 38.1588 56.1106 37.562 57.5704 36.099C59.0333 34.6392 59.6301 32.8201 59.8996 30.8053C60.0516 29.5264 60.1309 28.2399 60.137 26.9521C60.1588 26.7786 60.162 26.6033 60.1466 26.4291C60.1563 25.5468 60.1563 24.6068 60.1563 23.6122V23.2785C60.1563 22.2839 60.1563 21.3439 60.1466 20.4616C60.1625 20.2875 60.1593 20.1121 60.137 19.9386C60.1303 18.6508 60.0511 17.3644 59.8996 16.0854C59.6301 14.0706 59.0333 12.2515 57.5736 10.7917C56.1106 9.32869 54.2914 8.73194 52.2798 8.46244C50.9998 8.31076 49.7123 8.2315 48.4234 8.22502C48.2499 8.20297 48.0746 8.19975 47.9004 8.2154ZM50.9933 13.1594C51.3565 14.1193 51.9197 14.991 52.6454 15.7167C53.3711 16.4424 54.2427 17.0055 55.2026 17.3688C55.1824 17.1544 55.1578 16.9405 55.1288 16.7271C54.9331 15.2449 54.5866 14.6096 54.1663 14.1925C53.7492 13.7754 53.1172 13.4321 51.6381 13.23C51.4247 13.2022 51.2108 13.1786 50.9965 13.1594H50.9933ZM55.2026 29.5219C54.2427 29.8852 53.3711 30.4484 52.6454 31.1741C51.9197 31.8997 51.3565 32.7714 50.9933 33.7313C51.2178 33.712 51.4328 33.6864 51.6349 33.6607C53.1172 33.4586 53.7524 33.1153 54.1695 32.6982C54.5866 32.2811 54.9331 31.6459 55.132 30.1636C55.1577 29.9615 55.1833 29.7465 55.2026 29.5219ZM26.0068 33.7313C25.6435 32.7714 25.0803 31.8997 24.3546 31.1741C23.629 30.4484 22.7573 29.8852 21.7974 29.5219C21.8199 29.7465 21.8423 29.9615 21.8712 30.1636C22.0701 31.6459 22.4134 32.2811 22.8337 32.6982C23.2508 33.1153 23.8828 33.4586 25.3619 33.6607C25.5672 33.6864 25.7822 33.712 26.0068 33.7313ZM21.7974 17.3688C22.7573 17.0055 23.629 16.4424 24.3546 15.7167C25.0803 14.991 25.6435 14.1193 26.0068 13.1594C25.7822 13.1787 25.5672 13.2044 25.3651 13.2332C23.8828 13.4321 23.2476 13.7754 22.8305 14.1957C22.4134 14.6128 22.0701 15.2449 21.868 16.7239L21.7974 17.3688ZM38.5 22.6433C38.2873 22.6433 38.0833 22.7278 37.9329 22.8782C37.7824 23.0286 37.6979 23.2326 37.6979 23.4454C37.6979 23.6581 37.7824 23.8621 37.9329 24.0125C38.0833 24.1629 38.2873 24.2474 38.5 24.2474C38.7127 24.2474 38.9168 24.1629 39.0672 24.0125C39.2176 23.8621 39.3021 23.6581 39.3021 23.4454C39.3021 23.2326 39.2176 23.0286 39.0672 22.8782C38.9168 22.7278 38.7127 22.6433 38.5 22.6433ZM32.8854 23.4454C32.8854 21.9563 33.477 20.5282 34.5299 19.4752C35.5828 18.4223 37.0109 17.8308 38.5 17.8308C39.9891 17.8308 41.4172 18.4223 42.4701 19.4752C43.5231 20.5282 44.1146 21.9563 44.1146 23.4454C44.1146 24.9344 43.5231 26.3625 42.4701 27.4155C41.4172 28.4684 39.9891 29.0599 38.5 29.0599C37.0109 29.0599 35.5828 28.4684 34.5299 27.4155C33.477 26.3625 32.8854 24.9344 32.8854 23.4454ZM27.8612 47.341C33.8479 46.1828 40.255 46.4427 45.4428 49.5355C46.1679 49.9686 46.8545 50.5109 47.4481 51.1782C48.6544 52.5353 49.2768 54.2165 49.3057 55.9041C49.9185 55.5094 50.5345 55.0699 51.1569 54.5983L56.9576 50.2189C58.4099 49.1517 60.1651 48.5761 61.9674 48.5761C63.7697 48.5761 65.5248 49.1517 66.9772 50.2189C69.6593 52.2402 70.7309 55.8752 68.8091 58.9552C67.4456 61.1401 65.3891 64.1655 63.3004 66.1034C61.1829 68.0604 58.1767 69.7095 55.902 70.8068C53.1364 72.1414 50.1527 72.8794 47.2491 73.3478C41.3137 74.3103 35.1409 74.1627 29.2761 72.9531C26.2516 72.3307 23.172 72.0158 20.0842 72.0131H12.8333C12.1952 72.0131 11.5831 71.7596 11.1319 71.3083C10.6806 70.8571 10.4271 70.245 10.4271 69.6069C10.4271 68.9687 10.6806 68.3566 11.1319 67.9054C11.5831 67.4541 12.1952 67.2006 12.8333 67.2006H20.0842C23.4914 67.2006 26.934 67.5567 30.2482 68.2401C35.5938 69.337 41.0938 69.4577 46.4823 68.5962C49.1388 68.1663 51.6221 67.5279 53.8102 66.4723C56.0015 65.4136 58.4655 64.0211 60.0279 62.5742C61.6096 61.108 63.3774 58.5702 64.7281 56.4078C65.1356 55.7533 65.0778 54.8132 64.0801 54.0593C62.893 53.1609 61.0418 53.1609 59.8579 54.0593L54.0604 58.4386C51.744 60.1872 48.895 62.0576 45.3626 62.6223C44.9926 62.6809 44.6214 62.7323 44.2493 62.7763C42.0014 63.0357 39.7323 63.0572 37.4798 62.8405C37.1596 62.8184 36.847 62.7324 36.5606 62.5877C36.2741 62.4429 36.0195 62.2424 35.8117 61.9977C35.6039 61.7531 35.4472 61.4694 35.3507 61.1633C35.2542 60.8572 35.2199 60.5349 35.2499 60.2153C35.2799 59.8958 35.3735 59.5854 35.5252 59.3026C35.6769 59.0197 35.8836 58.7701 36.1333 58.5684C36.3829 58.3667 36.6704 58.2169 36.9788 58.128C37.2871 58.039 37.6102 58.0126 37.9289 58.0504C39.7087 58.2233 41.5013 58.2201 43.2804 58.0408L43.3767 58.0312C43.676 57.8454 43.9304 57.5955 44.1215 57.2995C44.3125 57.0035 44.4355 56.6688 44.4815 56.3196C44.5276 55.9703 44.4955 55.6151 44.3877 55.2798C44.2798 54.9444 44.0989 54.6371 43.8579 54.3801C43.6023 54.0986 43.3047 53.8584 42.9756 53.6679C39.1866 51.406 34.1238 51.0306 28.7756 52.0637C23.5516 53.1146 18.5993 55.2277 14.2258 58.2718C13.9679 58.4547 13.6766 58.5849 13.3684 58.6552C13.0602 58.7255 12.7412 58.7343 12.4295 58.6813C12.1179 58.6283 11.8198 58.5144 11.5522 58.3461C11.2846 58.1779 11.0527 57.9586 10.8698 57.7007C10.687 57.4429 10.5567 57.1515 10.4865 56.8433C10.4162 56.5351 10.4073 56.2161 10.4604 55.9045C10.5134 55.5929 10.6273 55.2947 10.7955 55.0271C10.9638 54.7595 11.1831 54.5277 11.4409 54.3448C16.3742 50.9054 21.9642 48.5211 27.8612 47.341Z" fill="#3C3C3C"/>
</g>
</svg>
