<svg width="70" height="71" viewBox="0 0 70 71" fill="none" xmlns="http://www.w3.org/2000/svg">
<g id="FluentBugProhibited20Regular 1">
<path id="Vector" d="M32.13 56.4067C32.4695 57.7192 32.9455 58.9967 33.5545 60.2077C30.1184 59.862 26.9326 58.2541 24.6135 55.6952C22.2945 53.1363 21.0069 49.8081 21 46.3547H19.25C17.8576 46.3547 16.5223 46.9078 15.5377 47.8924C14.5531 48.8769 14 50.2123 14 51.6047V58.6047C14 59.0688 13.8156 59.5139 13.4874 59.8421C13.1592 60.1703 12.7141 60.3547 12.25 60.3547C11.7859 60.3547 11.3408 60.1703 11.0126 59.8421C10.6844 59.5139 10.5 59.0688 10.5 58.6047V51.6047C10.5 49.284 11.4219 47.0584 13.0628 45.4175C14.7038 43.7765 16.9294 42.8547 19.25 42.8547H21V37.6047H8.75C8.28587 37.6047 7.84075 37.4203 7.51256 37.0921C7.18437 36.7639 7 36.3188 7 35.8547C7 35.3905 7.18437 34.9454 7.51256 34.6172C7.84075 34.289 8.28587 34.1047 8.75 34.1047H21V28.8547H19.25C16.9294 28.8547 14.7038 27.9328 13.0628 26.2919C11.4219 24.6509 10.5 22.4253 10.5 20.1047V13.1047C10.5 12.6405 10.6844 12.1954 11.0126 11.8672C11.3408 11.5391 11.7859 11.3547 12.25 11.3547C12.7141 11.3547 13.1592 11.5391 13.4874 11.8672C13.8156 12.1954 14 12.6405 14 13.1047V20.1047C14 21.4971 14.5531 22.8324 15.5377 23.817C16.5223 24.8016 17.8576 25.3547 19.25 25.3547H21C20.999 22.986 21.799 20.6865 23.2699 18.8299C24.7409 16.9733 26.7964 15.6685 29.1025 15.1277C28.3811 14.0016 27.9984 12.692 28 11.3547V9.60468C28 9.14055 28.1844 8.69543 28.5126 8.36724C28.8407 8.03905 29.2859 7.85468 29.75 7.85468C30.2141 7.85468 30.6593 8.03905 30.9874 8.36724C31.3156 8.69543 31.5 9.14055 31.5 9.60468V11.3547C31.5 12.2829 31.8687 13.1732 32.5251 13.8295C33.1815 14.4859 34.0717 14.8547 35 14.8547C35.9283 14.8547 36.8185 14.4859 37.4749 13.8295C38.1313 13.1732 38.5 12.2829 38.5 11.3547V9.60468C38.5 9.14055 38.6844 8.69543 39.0126 8.36724C39.3408 8.03905 39.7859 7.85468 40.25 7.85468C40.7141 7.85468 41.1592 8.03905 41.4874 8.36724C41.8156 8.69543 42 9.14055 42 9.60468V11.3547C42.0004 12.6918 41.6178 14.0011 40.8975 15.1277C43.2036 15.6685 45.2591 16.9733 46.7301 18.8299C48.201 20.6865 49.001 22.986 49 25.3547H50.75C52.1424 25.3547 53.4777 24.8016 54.4623 23.817C55.4469 22.8324 56 21.4971 56 20.1047V13.1047C56 12.6405 56.1844 12.1954 56.5126 11.8672C56.8408 11.5391 57.2859 11.3547 57.75 11.3547C58.2141 11.3547 58.6592 11.5391 58.9874 11.8672C59.3156 12.1954 59.5 12.6405 59.5 13.1047V20.1047C59.5 22.4253 58.5781 24.6509 56.9372 26.2919C55.2962 27.9328 53.0706 28.8547 50.75 28.8547H49V32.4422C47.8155 32.5529 46.6438 32.7732 45.5 33.1002V25.3547C45.5 23.4982 44.7625 21.7177 43.4497 20.4049C42.137 19.0922 40.3565 18.3547 38.5 18.3547H31.5C29.6435 18.3547 27.863 19.0922 26.5503 20.4049C25.2375 21.7177 24.5 23.4982 24.5 25.3547V46.3547C24.5047 48.6322 25.2523 50.8461 26.6293 52.6602C28.0064 54.4743 29.9376 55.7897 32.13 56.4067ZM66.5 51.6047C66.5 55.7818 64.8406 59.7879 61.8869 62.7416C58.9332 65.6953 54.9272 67.3547 50.75 67.3547C46.5728 67.3547 42.5668 65.6953 39.6131 62.7416C36.6594 59.7879 35 55.7818 35 51.6047C35 47.4275 36.6594 43.4214 39.6131 40.4677C42.5668 37.514 46.5728 35.8547 50.75 35.8547C54.9272 35.8547 58.9332 37.514 61.8869 40.4677C64.8406 43.4214 66.5 47.4275 66.5 51.6047ZM40.95 58.9547L58.1 41.8047C55.741 40.0354 52.823 39.1765 49.8816 39.3855C46.9403 39.5945 44.173 40.8575 42.0879 42.9426C40.0029 45.0277 38.7399 47.7949 38.5308 50.7363C38.3218 53.6776 39.1807 56.5957 40.95 58.9547ZM63 51.6047C63.0046 48.9534 62.1444 46.373 60.55 44.2547L43.4 61.4047C45.22 62.7697 47.3841 63.6009 49.6499 63.8052C51.9157 64.0095 54.1936 63.5788 56.2284 62.5614C58.2632 61.544 59.9744 59.9801 61.1705 58.0449C62.3665 56.1097 63 53.8796 63 51.6047Z" fill="#3C3C3C"/>
</g>
</svg>
