<svg width="66" height="67" viewBox="0 0 66 67" fill="none" xmlns="http://www.w3.org/2000/svg">
<g id="GameIconsChemicalTank 1">
<path id="Vector" d="M12.8262 3.35963V12.8747H54.2816V3.3595L12.8262 3.35963ZM16.0166 15.2835V52.4769H18.4256V15.2836L16.0166 15.2835ZM48.6822 15.2835V52.4769H51.0912V15.2836L48.6822 15.2835ZM20.7779 22.8283V52.4768L46.4345 52.477V22.8286H40.8271C40.7346 23.9801 39.7708 24.883 38.5952 24.883C37.4195 24.883 36.4558 23.9801 36.3635 22.8285H34.5146C34.6394 23.2178 34.708 23.6306 34.708 24.0612C34.708 26.2935 32.8958 28.1016 30.6636 28.1016C28.4313 28.1016 26.623 26.2935 26.623 24.0612C26.623 23.6306 26.692 23.2179 26.8164 22.8285H20.778L20.7779 22.8283ZM38.5792 26.8045C41.6961 26.8045 44.2231 29.3314 44.2231 32.4482C44.2231 35.5652 41.6963 38.092 38.5793 38.092C35.4626 38.092 32.9358 35.5652 32.9358 32.4485C32.9358 29.3315 35.4626 26.8046 38.5793 26.8046L38.5792 26.8045ZM28.1056 29.4875C29.9444 29.4875 31.4331 30.9802 31.4331 32.819C31.4331 34.6577 29.9443 36.1463 28.1057 36.1463C26.2671 36.1463 24.7744 34.6577 24.7744 32.8188C24.7744 30.9801 26.2671 29.4875 28.1058 29.4875H28.1056ZM36.9439 39.7154C38.7826 39.7154 40.2753 41.2082 40.2753 43.0468C40.2753 44.8856 38.7826 46.3744 36.9439 46.3744C35.1052 46.3744 33.6164 44.8855 33.6164 43.0469C33.6164 41.2083 35.1053 39.7157 36.944 39.7157L36.9439 39.7154ZM12.8262 54.8859V64.4049H54.2816V54.8858H12.8262V54.8859Z" fill="#3C3C3C"/>
</g>
</svg>
