<svg xmlns="http://www.w3.org/2000/svg" version="1.1" xmlns:xlink="http://www.w3.org/1999/xlink" xmlns:svgjs="http://svgjs.dev/svgjs" width="2000" height="545" viewBox="0 0 2000 545"><g transform="matrix(1,0,0,1,-1.212061167163938,1.129965779432041)"><svg viewBox="0 0 396 108" data-background-color="#ffffff" preserveAspectRatio="xMidYMid meet" height="545" width="2000" xmlns="http://www.w3.org/2000/svg" xmlns:xlink="http://www.w3.org/1999/xlink"><g id="tight-bounds" transform="matrix(1,0,0,1,0.2399881110984552,-0.22391846891270006)"><svg viewBox="0 0 395.52 108.44783829309374" height="108.44783829309374" width="395.52"><g><svg viewBox="0 0 395.52 108.44783829309374" height="108.44783829309374" width="395.52"><g><svg viewBox="0 0 395.52 108.44783829309374" height="108.44783829309374" width="395.52"><g id="textblocktransform"><svg viewBox="0 0 395.52 108.44783829309374" height="108.44783829309374" width="395.52" id="textblock"><g><svg viewBox="0 0 395.52 108.44783829309374" height="108.44783829309374" width="395.52"><g transform="matrix(1,0,0,1,0,0)"><svg width="395.52" viewBox="4.349999904632568 -36.22999954223633 133.5699920654297 36.630001068115234" height="108.44783829309374" data-palette-color="#dedede"><path d="M9.2-35.83L9.2-4.08 24.7-4.08 24.7 0 4.35 0 4.35-35.83 9.2-35.83ZM61.32-17.9L61.32-17.9Q61.32-13.88 60.05-10.51 58.77-7.15 56.45-4.73 54.12-2.3 50.86-0.96 47.6 0.38 43.65 0.38L43.65 0.38Q39.7 0.38 36.45-0.96 33.2-2.3 30.87-4.73 28.55-7.15 27.27-10.51 26-13.88 26-17.9L26-17.9Q26-21.93 27.27-25.29 28.55-28.65 30.87-31.09 33.2-33.52 36.45-34.88 39.7-36.23 43.65-36.23L43.65-36.23Q47.6-36.23 50.86-34.88 54.12-33.52 56.45-31.09 58.77-28.65 60.05-25.29 61.32-21.93 61.32-17.9ZM56.35-17.9L56.35-17.9Q56.35-21.2 55.45-23.83 54.55-26.45 52.9-28.26 51.25-30.08 48.9-31.05 46.55-32.02 43.65-32.02L43.65-32.02Q40.77-32.02 38.42-31.05 36.07-30.08 34.41-28.26 32.75-26.45 31.85-23.83 30.95-21.2 30.95-17.9L30.95-17.9Q30.95-14.6 31.85-11.99 32.75-9.38 34.41-7.56 36.07-5.75 38.42-4.79 40.77-3.83 43.65-3.83L43.65-3.83Q46.55-3.83 48.9-4.79 51.25-5.75 52.9-7.56 54.55-9.38 55.45-11.99 56.35-14.6 56.35-17.9ZM83.92-3.53L83.92-3.53Q85.37-3.53 86.58-3.66 87.8-3.8 88.87-4.08 89.95-4.35 90.9-4.74 91.85-5.13 92.8-5.63L92.8-5.63 92.8-13.53 87.25-13.53Q86.77-13.53 86.48-13.8 86.2-14.08 86.2-14.48L86.2-14.48 86.2-17.23 97.2-17.23 97.2-3.48Q95.85-2.5 94.38-1.78 92.92-1.05 91.26-0.56 89.6-0.08 87.7 0.16 85.8 0.4 83.57 0.4L83.57 0.4Q79.67 0.4 76.42-0.94 73.17-2.27 70.82-4.69 68.47-7.1 67.16-10.48 65.85-13.85 65.85-17.9L65.85-17.9Q65.85-22 67.13-25.38 68.42-28.75 70.81-31.16 73.2-33.58 76.58-34.9 79.97-36.23 84.17-36.23L84.17-36.23Q86.3-36.23 88.12-35.91 89.95-35.6 91.51-35.01 93.07-34.43 94.4-33.59 95.72-32.75 96.87-31.7L96.87-31.7 95.5-29.5Q95.07-28.83 94.4-28.83L94.4-28.83Q94-28.83 93.52-29.1L93.52-29.1Q92.9-29.45 92.12-29.95 91.35-30.45 90.23-30.91 89.12-31.38 87.61-31.7 86.1-32.02 84.02-32.02L84.02-32.02Q81-32.02 78.55-31.04 76.1-30.05 74.37-28.21 72.65-26.38 71.72-23.76 70.8-21.15 70.8-17.9L70.8-17.9Q70.8-14.5 71.76-11.84 72.72-9.18 74.47-7.33 76.22-5.48 78.62-4.5 81.02-3.53 83.92-3.53ZM137.92-17.9L137.92-17.9Q137.92-13.88 136.64-10.51 135.37-7.15 133.04-4.73 130.72-2.3 127.46-0.96 124.19 0.38 120.24 0.38L120.24 0.38Q116.29 0.38 113.04-0.96 109.79-2.3 107.47-4.73 105.14-7.15 103.87-10.51 102.59-13.88 102.59-17.9L102.59-17.9Q102.59-21.93 103.87-25.29 105.14-28.65 107.47-31.09 109.79-33.52 113.04-34.88 116.29-36.23 120.24-36.23L120.24-36.23Q124.19-36.23 127.46-34.88 130.72-33.52 133.04-31.09 135.37-28.65 136.64-25.29 137.92-21.93 137.92-17.9ZM132.94-17.9L132.94-17.9Q132.94-21.2 132.04-23.83 131.14-26.45 129.49-28.26 127.84-30.08 125.49-31.05 123.14-32.02 120.24-32.02L120.24-32.02Q117.37-32.02 115.02-31.05 112.67-30.08 111.01-28.26 109.34-26.45 108.44-23.83 107.54-21.2 107.54-17.9L107.54-17.9Q107.54-14.6 108.44-11.99 109.34-9.38 111.01-7.56 112.67-5.75 115.02-4.79 117.37-3.83 120.24-3.83L120.24-3.83Q123.14-3.83 125.49-4.79 127.84-5.75 129.49-7.56 131.14-9.38 132.04-11.99 132.94-14.6 132.94-17.9Z" opacity="1" transform="matrix(1,0,0,1,0,0)" fill="#ffffff" class="wordmark-text-0" data-fill-palette-color="primary" id="text-0"></path></svg></g></svg></g></svg></g></svg></g><g></g></svg></g><defs></defs></svg><rect width="395.52" height="108.44783829309374" fill="none" stroke="none" visibility="hidden"></rect></g></svg></g></svg>
