<svg xmlns="http://www.w3.org/2000/svg" version="1.1" xmlns:xlink="http://www.w3.org/1999/xlink" xmlns:svgjs="http://svgjs.dev/svgjs" width="1000" height="1000" viewBox="0 0 1000 1000"><g transform="matrix(1,0,0,1,-0.14221556886212738,-0.14221556886229791)"><svg viewBox="0 0 334 334" data-background-color="#ffffff" preserveAspectRatio="xMidYMid meet" height="1000" width="1000" xmlns="http://www.w3.org/2000/svg" xmlns:xlink="http://www.w3.org/1999/xlink"><g id="tight-bounds" transform="matrix(1,0,0,1,0.04749999999998522,0.04750000000001364)"><svg viewBox="0 0 333.90454557049503 333.90454557049503" height="333.90454557049503" width="333.90454557049503"><g><svg></svg></g><g><svg viewBox="0 0 333.90454557049503 333.90454557049503" height="333.90454557049503" width="333.90454557049503"><g><path d="M0 166.952c0-92.205 74.747-166.952 166.952-166.952 92.205 0 166.952 74.747 166.953 166.952 0 92.205-74.747 166.952-166.953 166.953-92.205 0-166.952-74.747-166.952-166.953zM166.952 327.306c88.561 0 160.354-71.793 160.354-160.354 0-88.561-71.793-160.354-160.354-160.354-88.561 0-160.354 71.793-160.354 160.354 0 88.561 71.793 160.354 160.354 160.354z" data-fill-palette-color="tertiary" fill="#4790fc" stroke="transparent"></path><ellipse rx="160.27418187383762" ry="160.27418187383762" cx="166.95227278524752" cy="166.95227278524752" fill="#4790fc" stroke="transparent" stroke-width="0" fill-opacity="1" data-fill-palette-color="tertiary"></ellipse></g><g transform="matrix(1,0,0,1,79.36828658428432,71.17305217166896)"><svg viewBox="0 0 175.1679724019264 191.55844122715712" height="191.55844122715712" width="175.1679724019264"><g><svg viewBox="0 0 175.1679724019264 191.55844122715712" height="191.55844122715712" width="175.1679724019264"><g><svg viewBox="0 0 213.1584412271571 233.10367857769273" height="191.55844122715712" width="175.1679724019264"><g transform="matrix(1,0,0,1,0,144.06742501679813)"><svg viewBox="0 0 213.1584412271571 89.03625356089461" height="89.03625356089461" width="213.1584412271571"><g id="textblocktransform"><svg viewBox="0 0 213.1584412271571 89.03625356089461" height="89.03625356089461" width="213.1584412271571" id="textblock"><g><svg viewBox="0 0 213.1584412271571 89.03625356089461" height="89.03625356089461" width="213.1584412271571"><g transform="matrix(1,0,0,1,0,0)"><svg width="213.1584412271571" viewBox="3.0999999046325684 -35.099998474121094 116.94000244140625 48.849998474121094" height="89.03625356089461" data-palette-color="#ffffff"><path d="M11.65-35.1L11.65-6.6 22.85-6.6 22.85 0 3.1 0 3.1-35.1 11.65-35.1ZM39.65 0.4Q35.55 0.4 32.27-1.35 29-3.1 27.12-6.35 25.25-9.6 25.25-13.95L25.25-13.95Q25.25-18.25 27.15-21.53 29.05-24.8 32.35-26.55 35.65-28.3 39.75-28.3L39.75-28.3Q43.85-28.3 47.15-26.55 50.45-24.8 52.35-21.53 54.25-18.25 54.25-13.95L54.25-13.95Q54.25-9.65 52.32-6.38 50.4-3.1 47.07-1.35 43.75 0.4 39.65 0.4L39.65 0.4ZM39.65-7Q42.1-7 43.82-8.8 45.55-10.6 45.55-13.95L45.55-13.95Q45.55-17.3 43.87-19.1 42.2-20.9 39.75-20.9L39.75-20.9Q37.25-20.9 35.6-19.13 33.95-17.35 33.95-13.95L33.95-13.95Q33.95-10.6 35.57-8.8 37.2-7 39.65-7L39.65-7ZM69.4-28.3Q72.35-28.3 74.57-27.1 76.8-25.9 78-23.95L78-23.95 78-27.9 86.55-27.9 86.55-0.05Q86.55 3.8 85.02 6.93 83.5 10.05 80.37 11.9 77.25 13.75 72.6 13.75L72.6 13.75Q66.4 13.75 62.55 10.83 58.7 7.9 58.15 2.9L58.15 2.9 66.6 2.9Q67 4.5 68.5 5.43 70 6.35 72.2 6.35L72.2 6.35Q74.85 6.35 76.42 4.83 78 3.3 78-0.05L78-0.05 78-4Q76.75-2.05 74.55-0.83 72.35 0.4 69.4 0.4L69.4 0.4Q65.95 0.4 63.15-1.38 60.35-3.15 58.72-6.43 57.1-9.7 57.1-14L57.1-14Q57.1-18.3 58.72-21.55 60.35-24.8 63.15-26.55 65.95-28.3 69.4-28.3L69.4-28.3ZM78-13.95Q78-17.15 76.22-19 74.45-20.85 71.9-20.85L71.9-20.85Q69.35-20.85 67.57-19.03 65.8-17.2 65.8-14L65.8-14Q65.8-10.8 67.57-8.93 69.35-7.05 71.9-7.05L71.9-7.05Q74.45-7.05 76.22-8.9 78-10.75 78-13.95L78-13.95ZM105.44 0.4Q101.34 0.4 98.07-1.35 94.79-3.1 92.92-6.35 91.04-9.6 91.04-13.95L91.04-13.95Q91.04-18.25 92.94-21.53 94.84-24.8 98.14-26.55 101.44-28.3 105.54-28.3L105.54-28.3Q109.64-28.3 112.94-26.55 116.24-24.8 118.14-21.53 120.04-18.25 120.04-13.95L120.04-13.95Q120.04-9.65 118.12-6.38 116.19-3.1 112.87-1.35 109.54 0.4 105.44 0.4L105.44 0.4ZM105.44-7Q107.89-7 109.62-8.8 111.34-10.6 111.34-13.95L111.34-13.95Q111.34-17.3 109.67-19.1 107.99-20.9 105.54-20.9L105.54-20.9Q103.04-20.9 101.39-19.13 99.74-17.35 99.74-13.95L99.74-13.95Q99.74-10.6 101.37-8.8 102.99-7 105.44-7L105.44-7Z" opacity="1" transform="matrix(1,0,0,1,0,0)" fill="#ffffff" class="wordmark-text-0" data-fill-palette-color="quaternary" id="text-0"></path></svg></g></svg></g></svg></g></svg></g><g transform="matrix(1,0,0,1,52.919168107849934,0)"><svg viewBox="0 0 107.32010501145724 123.04810242115636" height="123.04810242115636" width="107.32010501145724"><g><svg xmlns="http://www.w3.org/2000/svg" xmlns:xlink="http://www.w3.org/1999/xlink" version="1.1" x="0" y="0" viewBox="6.391000747680664 0 87.21800231933594 99.99999237060547" enable-background="new 0 0 100 100" xml:space="preserve" height="123.04810242115636" width="107.32010501145724" class="icon-icon-0" data-fill-palette-color="quaternary" id="icon-0"><path fill="#ffffff" d="M77.806 12.728C67.152 12.728 56.381 8.48 50 0c-6.38 8.479-17.154 12.727-27.807 12.727-5.508 0-10.983-1.135-15.802-3.409 0.54 14.316 1.604 28.825 3.999 42.962 1.222 7.749 2.422 16.888 6.666 23.668 3.729 6.528 9.515 11.869 15.722 16.006 4.715 3.137 9.846 5.717 15.187 7.612 0.853 0.303 1.502 0.434 2.1 0.434 1.036 0 1.917-0.394 3.434-0.974 12.28-4.715 25.46-13.388 30.882-25.855 4.878-11.093 5.954-24.273 7.206-36.19 0.968-9.189 1.671-18.426 2.022-27.663C88.79 11.592 83.312 12.728 77.806 12.728zM81.641 35.937l-0.267 2.568c-0.396 3.824-0.797 7.694-1.326 11.496H50v39.658c-0.001 0-0.002 0.001-0.003 0.001-4.081-1.561-8.003-3.585-11.673-6.026-5.664-3.775-10.016-8.147-12.584-12.645l-0.1-0.175-0.107-0.171c-2.877-4.597-4.016-11.91-5.021-18.363l-0.244-1.557-0.009-0.056-0.01-0.056c-0.034-0.201-0.065-0.408-0.099-0.609H50V13.899l0 0c7.62 5.639 17.418 8.829 27.806 8.829 1.693 0 3.378-0.086 5.046-0.257C82.525 26.877 82.121 31.375 81.641 35.937z" data-fill-palette-color="quaternary"></path></svg></g></svg></g><g></g></svg></g></svg></g></svg></g></svg></g><defs></defs></svg><rect width="333.90454557049503" height="333.90454557049503" fill="none" stroke="none" visibility="hidden"></rect></g></svg></g></svg>
