<svg xmlns="http://www.w3.org/2000/svg" width="34" height="43" viewBox="0 0 34 43" fill="none">
  <path d="M10.4193 17.2C13.1451 17.2 15.3548 15.0342 15.3548 12.3625C15.3548 9.69085 13.1451 7.52502 10.4193 7.52502C7.69355 7.52502 5.48386 9.69085 5.48386 12.3625C5.48386 15.0342 7.69355 17.2 10.4193 17.2Z" fill="black"/>
  <path d="M16.0404 19.8875C14.11 18.9267 11.9795 18.5438 10.4194 18.5438C7.3635 18.5438 1.0968 20.3807 1.0968 24.0531V26.875H11.3791V25.7953C11.3791 24.5187 11.9274 23.2388 12.8871 22.1719C13.6528 21.3199 14.7249 20.5292 16.0404 19.8875Z" fill="black"/>
  <path d="M23.3065 19.35C19.7371 19.35 12.6129 21.5107 12.6129 25.8V29.025H34V25.8C34 21.5107 26.8758 19.35 23.3065 19.35Z" fill="black"/>
  <path d="M23.3065 17.2C26.638 17.2 29.3387 14.5529 29.3387 11.2875C29.3387 8.02212 26.638 5.375 23.3065 5.375C19.9749 5.375 17.2742 8.02212 17.2742 11.2875C17.2742 14.5529 19.9749 17.2 23.3065 17.2Z" fill="black"/>
</svg>
