<svg xmlns="http://www.w3.org/2000/svg" width="40" height="40" viewBox="0 0 40 40" fill="none">
  <path d="M20 23.3333C20.3296 23.3333 20.6519 23.2356 20.926 23.0524C21.2 22.8693 21.4137 22.609 21.5398 22.3045C21.666 21.9999 21.699 21.6648 21.6347 21.3415C21.5703 21.0182 21.4116 20.7212 21.1785 20.4881C20.9454 20.255 20.6485 20.0963 20.3252 20.032C20.0019 19.9677 19.6667 20.0007 19.3622 20.1268C19.0577 20.253 18.7974 20.4666 18.6142 20.7407C18.4311 21.0148 18.3333 21.337 18.3333 21.6666C18.3333 22.1087 18.5089 22.5326 18.8215 22.8452C19.1341 23.1577 19.558 23.3333 20 23.3333ZM28.3333 23.3333C28.663 23.3333 28.9852 23.2356 29.2593 23.0524C29.5334 22.8693 29.747 22.609 29.8731 22.3045C29.9993 21.9999 30.0323 21.6648 29.968 21.3415C29.9037 21.0182 29.7449 20.7212 29.5119 20.4881C29.2788 20.255 28.9818 20.0963 28.6585 20.032C28.3352 19.9677 28.0001 20.0007 27.6955 20.1268C27.391 20.253 27.1307 20.4666 26.9476 20.7407C26.7644 21.0148 26.6667 21.337 26.6667 21.6666C26.6667 22.1087 26.8423 22.5326 27.1548 22.8452C27.4674 23.1577 27.8913 23.3333 28.3333 23.3333ZM20 30C20.3296 30 20.6519 29.9022 20.926 29.7191C21.2 29.536 21.4137 29.2757 21.5398 28.9711C21.666 28.6666 21.699 28.3315 21.6347 28.0082C21.5703 27.6849 21.4116 27.3879 21.1785 27.1548C20.9454 26.9217 20.6485 26.763 20.3252 26.6987C20.0019 26.6344 19.6667 26.6674 19.3622 26.7935C19.0577 26.9197 18.7974 27.1333 18.6142 27.4074C18.4311 27.6814 18.3333 28.0037 18.3333 28.3333C18.3333 28.7753 18.5089 29.1993 18.8215 29.5118C19.1341 29.8244 19.558 30 20 30ZM28.3333 30C28.663 30 28.9852 29.9022 29.2593 29.7191C29.5334 29.536 29.747 29.2757 29.8731 28.9711C29.9993 28.6666 30.0323 28.3315 29.968 28.0082C29.9037 27.6849 29.7449 27.3879 29.5119 27.1548C29.2788 26.9217 28.9818 26.763 28.6585 26.6987C28.3352 26.6344 28.0001 26.6674 27.6955 26.7935C27.391 26.9197 27.1307 27.1333 26.9476 27.4074C26.7644 27.6814 26.6667 28.0037 26.6667 28.3333C26.6667 28.7753 26.8423 29.1993 27.1548 29.5118C27.4674 29.8244 27.8913 30 28.3333 30ZM11.6667 23.3333C11.9963 23.3333 12.3185 23.2356 12.5926 23.0524C12.8667 22.8693 13.0803 22.609 13.2065 22.3045C13.3326 21.9999 13.3656 21.6648 13.3013 21.3415C13.237 21.0182 13.0783 20.7212 12.8452 20.4881C12.6121 20.255 12.3151 20.0963 11.9918 20.032C11.6685 19.9677 11.3334 20.0007 11.0289 20.1268C10.7243 20.253 10.464 20.4666 10.2809 20.7407C10.0978 21.0148 10 21.337 10 21.6666C10 22.1087 10.1756 22.5326 10.4882 22.8452C10.8007 23.1577 11.2246 23.3333 11.6667 23.3333ZM31.6667 6.66665H30V4.99998C30 4.55795 29.8244 4.13403 29.5119 3.82147C29.1993 3.50891 28.7754 3.33331 28.3333 3.33331C27.8913 3.33331 27.4674 3.50891 27.1548 3.82147C26.8423 4.13403 26.6667 4.55795 26.6667 4.99998V6.66665H13.3333V4.99998C13.3333 4.55795 13.1577 4.13403 12.8452 3.82147C12.5326 3.50891 12.1087 3.33331 11.6667 3.33331C11.2246 3.33331 10.8007 3.50891 10.4882 3.82147C10.1756 4.13403 10 4.55795 10 4.99998V6.66665H8.33334C7.00726 6.66665 5.73549 7.19343 4.79781 8.13111C3.86013 9.06879 3.33334 10.3406 3.33334 11.6666V31.6666C3.33334 32.9927 3.86013 34.2645 4.79781 35.2022C5.73549 36.1399 7.00726 36.6666 8.33334 36.6666H31.6667C32.9928 36.6666 34.2645 36.1399 35.2022 35.2022C36.1399 34.2645 36.6667 32.9927 36.6667 31.6666V11.6666C36.6667 10.3406 36.1399 9.06879 35.2022 8.13111C34.2645 7.19343 32.9928 6.66665 31.6667 6.66665ZM33.3333 31.6666C33.3333 32.1087 33.1578 32.5326 32.8452 32.8452C32.5326 33.1577 32.1087 33.3333 31.6667 33.3333H8.33334C7.89132 33.3333 7.46739 33.1577 7.15483 32.8452C6.84227 32.5326 6.66668 32.1087 6.66668 31.6666V16.6666H33.3333V31.6666ZM33.3333 13.3333H6.66668V11.6666C6.66668 11.2246 6.84227 10.8007 7.15483 10.4881C7.46739 10.1756 7.89132 9.99998 8.33334 9.99998H31.6667C32.1087 9.99998 32.5326 10.1756 32.8452 10.4881C33.1578 10.8007 33.3333 11.2246 33.3333 11.6666V13.3333ZM11.6667 30C11.9963 30 12.3185 29.9022 12.5926 29.7191C12.8667 29.536 13.0803 29.2757 13.2065 28.9711C13.3326 28.6666 13.3656 28.3315 13.3013 28.0082C13.237 27.6849 13.0783 27.3879 12.8452 27.1548C12.6121 26.9217 12.3151 26.763 11.9918 26.6987C11.6685 26.6344 11.3334 26.6674 11.0289 26.7935C10.7243 26.9197 10.464 27.1333 10.2809 27.4074C10.0978 27.6814 10 28.0037 10 28.3333C10 28.7753 10.1756 29.1993 10.4882 29.5118C10.8007 29.8244 11.2246 30 11.6667 30Z" fill="black"/>
</svg>
