<svg xmlns="http://www.w3.org/2000/svg" width="40" height="40" viewBox="0 0 40 40" fill="none">
  <g clip-path="url(#clip0_17_194)">
    <path d="M35.515 22.2262V14.4006C35.515 13.29 36.4238 12.3869 37.5406 12.3869C38.0746 12.387 38.5866 12.5993 38.9642 12.9769C39.3417 13.3545 39.5538 13.8666 39.5538 14.4006V25.1162C39.5534 26.5943 39.0252 28.0237 38.0644 29.1469L31.3825 36.2431C30.7194 36.8675 30.5569 37.42 30.5569 38.2575V39.5494H23.2838L23.2756 36.4756C23.2756 35.305 23.18 33.7406 24.645 32.2056L33.1238 23.6919C33.4193 23.3967 33.8181 23.2281 34.2358 23.2217C34.6534 23.2152 35.0572 23.3715 35.3617 23.6574C35.6662 23.9433 35.8476 24.3365 35.8675 24.7537C35.8873 25.171 35.7441 25.5796 35.4681 25.8931L31.3788 30.2737C31.1138 30.5844 30.665 31.17 30.4425 31.8875C30.3225 32.26 30.2881 32.6231 30.2813 33.04H31.5975C31.6025 32.7431 31.625 32.5044 31.6956 32.2831C31.8244 31.8694 32.0806 31.4969 32.2738 31.2581L36.425 26.7019C36.9469 26.1756 37.2331 25.4944 37.2331 24.7781C37.2331 23.7025 36.5863 22.7131 35.5163 22.2256L35.515 22.2262ZM4.87438 22.2262V14.4006C4.87438 13.29 3.96563 12.3869 2.84876 12.3869C2.31479 12.387 1.80274 12.5993 1.42523 12.9769C1.04771 13.3545 0.835632 13.8666 0.835632 14.4006V25.1162C0.835632 26.5981 1.36876 28.0294 2.32563 29.1469L9.00813 36.2431C9.67063 36.8675 9.83376 37.42 9.83376 38.2575V39.5494H17.1069L17.115 36.4756C17.115 35.305 17.2106 33.7406 15.7456 32.2056L7.26688 23.6919C6.97131 23.3967 6.57253 23.2281 6.15487 23.2217C5.73722 23.2152 5.33343 23.3715 5.02892 23.6574C4.72441 23.9433 4.54304 24.3365 4.52318 24.7537C4.50332 25.171 4.64653 25.5796 4.92251 25.8931L9.01251 30.2737C9.27751 30.5844 9.72626 31.17 9.94876 31.8875C10.0694 32.26 10.1031 32.6231 10.11 33.04H8.79376C8.78876 32.7431 8.76688 32.5044 8.69501 32.2831C8.56688 31.8694 8.31001 31.4969 8.11688 31.2581L3.96563 26.7025C3.44376 26.1762 3.15751 25.4944 3.15751 24.7787C3.15751 23.7025 3.80438 22.7137 4.87438 22.2262ZM20.96 3.82686C21.418 3.82686 21.8572 3.64492 22.1811 3.32107C22.5049 2.99722 22.6869 2.55798 22.6869 2.09999C22.6869 1.64199 22.5049 1.20275 22.1811 0.878902C21.8572 0.55505 21.418 0.373112 20.96 0.373112C20.502 0.373112 20.0628 0.55505 19.7389 0.878902C19.4151 1.20275 19.2331 1.64199 19.2331 2.09999C19.2331 2.55798 19.4151 2.99722 19.7389 3.32107C20.0628 3.64492 20.502 3.82686 20.96 3.82686ZM11.5931 3.83624C11.364 3.83722 11.1369 3.79303 10.9248 3.7062C10.7128 3.61936 10.5199 3.49157 10.3573 3.33015C10.1946 3.16873 10.0654 2.97683 9.97695 2.76542C9.88852 2.55402 9.84262 2.32726 9.84188 2.09811C9.8427 1.86901 9.88866 1.64232 9.97713 1.43099C10.0656 1.21966 10.1948 1.02784 10.3575 0.866478C10.5201 0.70512 10.7129 0.577391 10.925 0.490592C11.137 0.403793 11.364 0.359625 11.5931 0.360612C12.5606 0.360612 13.3469 1.13811 13.3469 2.09811C13.3469 3.05999 12.5606 3.83624 11.5931 3.83624ZM29.5381 10.5012C29.6972 10.5012 29.8547 10.4697 30.0016 10.4088C30.1485 10.3478 30.282 10.2586 30.3944 10.146C30.5068 10.0335 30.596 9.89992 30.6568 9.75293C30.7176 9.60595 30.7488 9.44843 30.7488 9.28936C30.7487 9.1303 30.7173 8.97281 30.6563 8.82588C30.5954 8.67896 30.5061 8.54548 30.3935 8.43306C30.281 8.32064 30.1474 8.23149 30.0005 8.1707C29.8535 8.1099 29.6959 8.07865 29.5369 8.07874C29.2156 8.0789 28.9076 8.20668 28.6806 8.43395C28.4535 8.66122 28.3261 8.96937 28.3263 9.29061C28.3264 9.61186 28.4542 9.91988 28.6815 10.1469C28.9087 10.3739 29.2169 10.5014 29.5381 10.5012Z" fill="black"/>
    <path d="M31.2919 11.0987H28.025C28.01 11.0987 26.9319 11.0006 26.9319 11.0006L25.5637 6.23187C25.0131 4.31187 23.4031 4.37062 23.4031 4.37062H18.9744C18.9744 4.37062 17.3656 4.31187 16.815 6.23187L16.1394 8.57999L15.4656 6.23187C14.9119 4.31187 13.3062 4.37062 13.3062 4.37062H9.87937C9.87937 4.37062 8.26937 4.31187 7.71875 6.23187L6.33937 11.0375C6.20812 11.4875 6.45437 11.8287 6.84812 11.9425C7.24062 12.0544 7.6425 11.8562 7.74312 11.4981L9.08687 6.81374L9.74125 6.81249L7.78 14.9231H9.51312V20.6844C9.51312 21.1587 9.89562 21.545 10.3712 21.545C10.8456 21.545 11.2337 21.1587 11.2337 20.6844V14.9231H11.9606V20.6844C11.9606 21.1587 12.3438 21.545 12.8181 21.545C13.0468 21.5453 13.2662 21.4549 13.4281 21.2935C13.5901 21.1321 13.6814 20.913 13.6819 20.6844V14.9231H15.385L13.4444 6.81249L14.0962 6.81374L15.425 11.4487C15.4469 11.5281 15.4825 11.6006 15.5287 11.6631C15.6587 11.86 15.8856 11.9687 16.1381 11.9606C16.3906 11.9687 16.6163 11.8606 16.7463 11.6669C16.8005 11.596 16.839 11.5144 16.8594 11.4275L18.1812 6.81312L18.7837 6.81187V20.5169C18.7837 21.0769 19.2419 21.5294 19.8006 21.5294C20.36 21.5294 20.8131 21.0769 20.8131 20.5169V12.7194H21.5619V20.5169C21.5619 21.0769 22.0156 21.5294 22.5731 21.5294C23.1337 21.5294 23.5931 21.0769 23.5931 20.5169V6.81187L24.2481 6.81312L25.5344 11.4975C25.6044 11.7281 25.7969 11.8806 26.0275 11.9394C26.0375 11.9419 26.0425 11.9462 26.0506 11.9487C26.2556 11.995 27.2006 12.2631 27.8944 12.4612V20.9612C27.9021 21.145 27.9805 21.3188 28.1133 21.4461C28.2461 21.5734 28.4229 21.6445 28.6069 21.6445C28.7908 21.6445 28.9677 21.5734 29.1005 21.4461C29.2332 21.3188 29.3117 21.145 29.3194 20.9612V16.715H29.8769V20.9612C29.8769 21.3537 30.195 21.6719 30.5875 21.6719C30.98 21.6719 31.3025 21.3537 31.3025 20.9612V13.0212H31.8494V15.7112C31.8494 16.0069 32.0887 16.2444 32.3794 16.2444C32.4489 16.244 32.5176 16.23 32.5816 16.2029C32.6456 16.1759 32.7036 16.1365 32.7523 16.0869C32.801 16.0374 32.8394 15.9786 32.8653 15.9142C32.8912 15.8497 32.904 15.7807 32.9031 15.7112V12.6512C32.9044 11.7944 32.15 11.0987 31.2931 11.0987H31.2919Z" fill="black"/>
  </g>
  <defs>
    <clipPath id="clip0_17_194">
      <rect width="40" height="40" fill="white"/>
    </clipPath>
  </defs>
</svg>
